<?xml version="1.0" encoding="UTF-8"?>
<svg id="_레이어_1" data-name="레이어 1" xmlns="http://www.w3.org/2000/svg" viewBox="0 0 1500 500">
  <defs>
    <style>
      .cls-1 {
        fill: #980030;
      }

      .cls-1, .cls-2, .cls-3, .cls-4, .cls-5, .cls-6 {
        stroke-width: 0px;
      }

      .cls-2 {
        fill: #1bb8ce;
      }

      .cls-3 {
        fill: #f39800;
      }

      .cls-4 {
        fill: #e60012;
      }

      .cls-5 {
        fill: #0054a6;
      }

      .cls-6 {
        fill: #002063;
      }
    </style>
  </defs>
  <g>
    <path class="cls-3" d="m349.36,214.81c9.4,0,17.02-7.62,17.02-17.02s-7.62-17.02-17.02-17.02h-51.07v34.05h51.07Z"/>
    <path class="cls-4" d="m132.29,214.81c-11.75,0-21.28,9.53-21.28,21.28s9.53,21.28,21.28,21.28h51.07c35.26,0,63.84,28.58,63.84,63.84s-28.58,63.84-63.84,63.84h-114.92c-9.4,0-17.02-7.62-17.02-17.02s7.62-17.02,17.02-17.02h114.92c16.45,0,29.79-13.34,29.79-29.79s-13.34-29.79-29.79-29.79h-51.07c-30.56,0-55.33-24.77-55.33-55.33s24.77-55.33,55.33-55.33h80.87c-9.4,0-17.02,7.62-17.02,17.02s7.62,17.02,17.02,17.02h-80.87Z"/>
    <path class="cls-3" d="m298.28,129.69c0-9.4-7.62-17.02-17.02-17.02s-17.02,7.62-17.02,17.02v51.07h34.05v-51.07Z"/>
    <path class="cls-5" d="m383.41,274.4c0-9.4,7.62-17.02,17.02-17.02s17.02,7.62,17.02,17.02v-127.69h59.59c9.4,0,17.02,7.62,17.02,17.02s-7.62,17.02-17.02,17.02h-25.54c-9.4,0-17.02,7.62-17.02,17.02s7.62,17.02,17.02,17.02h25.54c28.21,0,51.07-22.87,51.07-51.07s-22.87-51.07-51.07-51.07h-76.61c-9.4,0-17.02,7.62-17.02,17.02v144.71Z"/>
    <path class="cls-2" d="m417.46,274.4c0,9.4-7.62,17.02-17.02,17.02s-17.02-7.62-17.02-17.02l.14,38.31c0,23.51-19.06,42.56-42.56,42.56s-42.56-19.06-42.56-42.56l-.16-38.29c0,9.4-7.62,17.02-17.01,17.02s-17.01-7.62-17.01-17.02v38.29c0,42.31,34.3,76.61,76.61,76.61s76.61-34.3,76.61-76.61v-38.31Z"/>
    <path class="cls-3" d="m264.26,214.81h34.02v59.59c0-9.4-7.62-17.02-17.02-17.02s-17.02,7.62-17.02,17.02l.03-59.59Z"/>
    <rect class="cls-1" x="264.23" y="180.77" width="34.05" height="34.05"/>
    <path class="cls-3" d="m264.26,214.81h-51.1c9.4,0,17.02-7.62,17.02-17.02s-7.62-17.02-17.02-17.02h51.07v34.05"/>
    <circle class="cls-6" cx="281.26" cy="274.42" r="17.02"/>
    <circle class="cls-6" cx="400.43" cy="274.4" r="17.02"/>
    <circle class="cls-1" cx="213.16" cy="197.79" r="17.02"/>
  </g>
  <g>
    <g>
      <path class="cls-6" d="m1045.15,209.18c-1.22,0-2.44-.19-3.62-.57-13.95-4.43-26.82-14.17-38.27-28.94l-.79-1.02-.79,1.02c-11.47,14.8-24.22,24.53-37.9,28.92-1.19.38-2.42.58-3.65.58-3.08,0-6.15-1.26-8.4-3.46-2.32-2.27-3.6-5.28-3.6-8.49v-.38c0-5.19,3.39-9.72,8.42-11.29,18.24-5.67,31.16-20.06,33.73-37.54l.17-1.15h-29.99c-6.81,0-12.35-5.43-12.35-12.11s5.54-12.11,12.35-12.11h84.37c6.81,0,12.35,5.43,12.35,12.11s-5.54,12.11-12.35,12.11h-29.98l.17,1.15c2.57,17.48,15.49,31.87,33.72,37.54,5.04,1.57,8.42,6.11,8.43,11.3v.38c0,3.21-1.28,6.23-3.6,8.5-2.25,2.2-5.32,3.46-8.41,3.46Z"/>
      <path class="cls-6" d="m636.32,282.91c-17.24,0-31.27-14.03-31.27-31.27s14.03-31.27,31.27-31.27h82.99c17.24,0,31.27,14.03,31.27,31.27s-14.03,31.27-31.27,31.27h-82.99Zm6.37-38.9c-3.9,0-7.2,3.49-7.2,7.63s3.3,7.63,7.2,7.63h70.33c3.9,0,7.2-3.49,7.2-7.63s-3.3-7.63-7.2-7.63h-70.33Z"/>
      <path class="cls-6" d="m1151.66,283.06c-14.13,0-25.62-11.49-25.62-25.62s11.5-25.63,25.62-25.63h96.33c14.13,0,25.62,11.5,25.62,25.63s-11.5,25.62-25.62,25.62h-96.33Zm2.89-29.77c-1.16,0-2.27.49-3.06,1.35-.78.85-1.17,2.01-1.07,3.17.19,2.11,2.1,3.77,4.35,3.77h90.5c2.25,0,4.16-1.66,4.35-3.77.1-1.16-.29-2.32-1.07-3.17-.78-.86-1.9-1.35-3.06-1.35h-90.95Z"/>
      <path class="cls-6" d="m1151.33,196.18c-13.09,0-23.73-10.65-23.73-23.73s10.65-23.73,23.73-23.73h97c13.09,0,23.73,10.65,23.73,23.73s-10.65,23.73-23.73,23.73h-97Zm2.89-27.45c-2.05,0-3.72,1.67-3.72,3.72s1.67,3.72,3.72,3.72h91.62c2.05,0,3.72-1.67,3.72-3.72s-1.67-3.72-3.72-3.72h-91.62Z"/>
      <path class="cls-6" d="m732.42,209.46c-7.25,0-13.15-5.9-13.15-13.15v-67.41c0-7.25,5.9-13.15,13.15-13.15s13.15,5.9,13.15,13.15v25.39h7.38c6.75,0,12.25,5.49,12.25,12.25s-5.49,12.25-12.25,12.25h-7.38v17.53c0,7.25-5.9,13.15-13.15,13.15Z"/>
      <path class="cls-6" d="m798.83,283.06c-6.48,0-11.75-5.27-11.75-11.75v-44.86c0-7.17,5.83-13,13-13s13,5.83,13,13v2.68h85.29v-2.68c0-7.17,5.83-13,13-13s13,5.83,13,13v44.86c0,6.48-5.27,11.75-11.75,11.75h-113.79Zm14.25-23.63h85.29v-9.23h-85.29v9.23Z"/>
      <path class="cls-6" d="m1357.39,241.85c-7.28,0-13.2-5.92-13.2-13.2v-19.39h-38.45c-7.24,0-13.13-5.21-13.13-11.62s5.89-11.62,13.13-11.62h95.1c7.24,0,13.13,5.21,13.13,11.62s-5.89,11.62-13.13,11.62h-30.25v19.39c0,7.28-5.92,13.2-13.2,13.2Z"/>
      <path class="cls-6" d="m1435.36,250.51c-6.17,0-11.45-4.46-12.85-10.85l-.17-.79h-21.6c-5.23,0-9.49-5.21-9.49-11.62s4.26-11.62,9.49-11.62h21.42v-85.84c0-7.74,5.92-14.04,13.2-14.04s13.2,6.3,13.2,14.04v106.68c0,7.74-5.92,14.04-13.2,14.04Z"/>
      <path class="cls-6" d="m687.01,207.63c-1.13,0-2.26-.16-3.36-.46-12.93-3.59-24.25-10.89-34.59-22.33l-.74-.82-.74.82c-10.36,11.45-21.53,18.75-34.16,22.3-1.12.31-2.26.47-3.4.47h0c-3.28,0-6.39-1.28-8.76-3.62-2.42-2.37-3.75-5.55-3.75-8.95v-1.13c0-5.52,3.66-10.37,9.11-12.06,13.44-4.18,24.11-14.8,28.53-28.41l.43-1.31h-26.5c-6.81,0-12.34-5.54-12.34-12.34s5.54-12.34,12.34-12.34h27.3v-3.35c0-6.7,5.45-12.15,12.15-12.15s12.15,5.45,12.15,12.15v3.35h26.9c6.81,0,12.34,5.54,12.34,12.34s-5.54,12.34-12.34,12.34h-26.1l.43,1.31c4.42,13.61,15.08,24.23,28.53,28.41,5.45,1.69,9.11,6.54,9.11,12.06v1.16c0,6.93-5.62,12.56-12.52,12.56Z"/>
      <path class="cls-6" d="m1134.58,142.14c-5.35,0-9.7-4.35-9.7-9.7s4.35-9.7,9.7-9.7h53.58v-1c.04-5.88,4.86-10.67,10.74-10.67h1.84c5.88,0,10.7,4.79,10.74,10.67v1h53.59c5.35,0,9.7,4.35,9.7,9.7s-4.35,9.7-9.7,9.7h-130.49Z"/>
      <path class="cls-6" d="m1132.62,224.58c-5.99,0-10.86-4.87-10.86-10.86s4.87-10.86,10.86-10.86h134.43c5.99,0,10.86,4.87,10.86,10.86s-4.87,10.86-10.86,10.86h-134.43Z"/>
      <path class="cls-6" d="m911.5,209.46c-7.24,0-13.13-5.89-13.13-13.13v-21.2h-24.85l-.23.68c-5.54,16.15-20.72,27-37.77,27h-20.61c-21.75,0-40.1-17.22-40.9-38.38-.41-10.95,3.54-21.32,11.14-29.21,7.61-7.9,17.82-12.25,28.75-12.25h20.69c17.45,0,32.99,10.85,38.66,27l.24.67h24.89v-21.6c0-7.24,5.89-13.13,13.13-13.13s13.13,5.89,13.13,13.13v67.3c0,7.24-5.89,13.13-13.13,13.13Zm-94.69-61.35c-4.06,0-7.98,1.7-10.76,4.67-2.82,3-4.23,6.93-3.98,11.05.49,7.75,7.2,13.82,15.28,13.82h14.35c8.08,0,14.79-6.07,15.28-13.82.26-4.12-1.15-8.05-3.98-11.05-2.78-2.96-6.71-4.67-10.76-4.67h-15.43Z"/>
      <path class="cls-6" d="m1085.34,232.57c-7.28,0-13.2-5.92-13.2-13.2v-90.31c0-7.28,5.92-13.2,13.2-13.2s13.2,5.92,13.2,13.2v90.31c0,7.28-5.92,13.2-13.2,13.2Z"/>
      <path class="cls-6" d="m972.66,283.06c-7.85,0-14.23-6.39-14.23-14.23v-35.37c0-6.71,5.46-12.18,12.17-12.18h2.05c6.71,0,12.18,5.46,12.18,12.18v26.58h104.64c6.35,0,11.51,5.17,11.51,11.52s-5.17,11.51-11.51,11.51h-116.81Z"/>
      <path class="cls-6" d="m1320.4,283.06c-7.85,0-14.23-6.39-14.23-14.23v-35.37c0-6.71,5.46-12.18,12.17-12.18h2.05c6.71,0,12.17,5.46,12.17,12.18v26.58h104.64c6.35,0,11.51,5.17,11.51,11.52s-5.17,11.51-11.51,11.51h-116.81Z"/>
      <path class="cls-6" d="m1330.01,177.82c-15.47,0-28.05-12.58-28.05-28.05s12.58-28.05,28.05-28.05h52.01c15.47,0,28.05,12.58,28.05,28.05s-12.58,28.05-28.05,28.05h-52.01Zm3.77-33c-2.8,0-5.07,2.28-5.07,5.07s2.28,5.07,5.07,5.07h44.25c2.8,0,5.07-2.28,5.07-5.07s-2.28-5.07-5.07-5.07h-44.25Z"/>
    </g>
    <g>
      <g>
        <polygon class="cls-6" points="875.05 353.65 882.82 353.65 878.96 342.03 875.05 353.65"/>
        <path class="cls-6" d="m706.55,341.85c-1.04-.71-2.27-1.06-3.69-1.06s-2.65.35-3.7,1.06c-1.05.71-1.87,1.82-2.45,3.34s-.87,3.49-.87,5.91.29,4.31.87,5.78c.58,1.47,1.4,2.55,2.45,3.22,1.05.68,2.28,1.02,3.7,1.02s2.66-.34,3.71-1.02c1.04-.68,1.85-1.76,2.42-3.23.57-1.48.85-3.4.85-5.77s-.29-4.42-.86-5.93c-.57-1.51-1.38-2.62-2.43-3.33Z"/>
        <path class="cls-6" d="m763.9,340.85h-5.82v8.92h5.4c1.58,0,2.83-.42,3.75-1.27.92-.85,1.38-1.94,1.38-3.28s-.44-2.41-1.33-3.19c-.89-.78-2.02-1.17-3.38-1.17Z"/>
        <path class="cls-6" d="m597.53,316.96v68.1h851.19v-68.1h-851.19Zm50.84,47.2l-6.93-12.18-4.33,5.22v5.33c0,1.69-1.37,3.06-3.06,3.06h0c-1.69,0-3.06-1.37-3.06-3.06v-23.11c0-1.69,1.37-3.06,3.06-3.06h0c1.69,0,3.06,1.37,3.06,3.06v10.32l9.85-12.38c.51-.64,1.28-1.01,2.09-1.01h0c2.23,0,3.47,2.56,2.1,4.32l-5.49,7,7.62,13.73c1.04,1.88-.32,4.19-2.46,4.19h0c-1.01,0-1.95-.54-2.45-1.42Zm66.24-5.15c-1.08,2.24-2.63,3.96-4.64,5.17-2.01,1.21-4.38,1.81-7.12,1.81s-5.15-.6-7.17-1.81c-2.02-1.2-3.57-2.92-4.67-5.16-1.1-2.23-1.65-4.89-1.65-7.99s.56-5.8,1.67-8.05c1.11-2.25,2.68-3.99,4.7-5.21,2.02-1.22,4.39-1.83,7.12-1.83s5.07.6,7.08,1.82c2.01,1.21,3.56,2.94,4.66,5.2,1.1,2.25,1.65,4.94,1.65,8.07s-.54,5.75-1.63,7.99Zm53.42,4.87l-4.05-9.56h-5.9v8.32c0,1.62-1.32,2.94-2.94,2.94h0c-1.62,0-2.94-1.32-2.94-2.94v-23.88c0-1.33,1.08-2.41,2.41-2.41h9.92c2.33,0,4.24.37,5.72,1.11,1.48.74,2.57,1.77,3.28,3.08.7,1.31,1.05,2.83,1.05,4.54,0,1.54-.24,2.83-.72,3.89s-1.1,1.94-1.88,2.64c-.78.7-1.62,1.27-2.54,1.72l3.7,8.34c.82,1.84-.53,3.91-2.54,3.91h0c-1.12,0-2.13-.67-2.56-1.7Zm60.87,1.7h-15.42c-1.33,0-2.41-1.08-2.41-2.41v-24.42c0-1.33,1.08-2.41,2.41-2.41h15.21c1.35,0,2.45,1.1,2.45,2.46v.08c0,1.35-1.1,2.44-2.45,2.44h-11.7v7.1h9.83c1.35,0,2.45,1.1,2.45,2.45h0c0,1.35-1.1,2.45-2.45,2.45h-9.87v7.24l11.95.02c1.35,0,2.44,1.1,2.44,2.45v.13c0,1.35-1.1,2.45-2.45,2.45Zm57.09-1.85l-1.73-4.93h-10.53l-1.77,4.94c-.39,1.1-1.44,1.83-2.6,1.83h-.05c-1.91,0-3.25-1.9-2.6-3.7l8.5-23.77c.38-1.06,1.38-1.77,2.51-1.77h2.49c1.13,0,2.13.71,2.51,1.77l8.5,23.77c.64,1.8-.69,3.7-2.6,3.7h0c-1.17,0-2.22-.74-2.61-1.85Zm560.78,19.38h-521.2v-64.19h521.2v64.19Z"/>
      </g>
      <g>
        <path class="cls-6" d="m994.55,365.98c-1.39,0-2.74-.17-4.06-.53-1.32-.35-2.52-.87-3.6-1.57-1.08-.69-1.97-1.56-2.68-2.6-.71-1.04-1.18-2.22-.2-3.43.66-.83,1.73-.8,1.73-.8,1.31,0,1.71.88,1.85,1.29.26.75.65,1.4,1.17,1.95.68.72,1.52,1.25,2.52,1.62,1,.37,2.08.55,3.25.55,1.29,0,2.46-.18,3.49-.53,1.03-.36,1.85-.87,2.45-1.54.6-.67.9-1.47.9-2.42,0-.85-.2-1.57-.61-2.16-.4-.59-.98-1.09-1.73-1.48-.75-.4-1.65-.71-2.7-.94l-5.54-1.25c-2.17-.46-3.88-1.31-5.13-2.56-1.25-1.25-1.88-2.9-1.89-4.96-.01-1.72.44-3.23,1.36-4.53.92-1.29,2.19-2.3,3.79-3.02,1.6-.72,3.43-1.08,5.48-1.08,2.39,0,4.39.4,6.01,1.19,1.62.8,2.85,1.84,3.69,3.14.27.42.49.85.68,1.29.59,1.41-.53,2.97-2.06,2.97h0c-.98,0-1.78-.67-2.1-1.59-.18-.53-.44-.98-.77-1.37-.62-.74-1.4-1.26-2.34-1.58-.94-.32-1.96-.48-3.08-.48-.81,0-1.58.1-2.32.3-.74.2-1.4.5-1.96.89-.57.39-1.01.87-1.34,1.45-.33.57-.5,1.23-.5,1.97,0,1,.34,1.81,1.01,2.43.67.62,1.91,1.15,3.72,1.6l5.42,1.23c1.55.32,2.8.8,3.76,1.43.96.63,1.69,1.34,2.2,2.13.51.79.86,1.62,1.05,2.48.19.86.28,1.67.28,2.46,0,1.51-.45,2.87-1.36,4.1-.9,1.22-2.19,2.19-3.86,2.9-1.67.72-3.67,1.07-6,1.07Z"/>
        <path class="cls-6" d="m1040.18,338.31h0c0-1.09.88-1.97,1.97-1.97h18.52c1.09,0,1.97.88,1.97,1.97h0c0,1.09-.88,1.97-1.97,1.97h-6.86v23.11c0,1.21-.98,2.18-2.18,2.18h0c-1.21,0-2.18-.98-2.18-2.18v-23.11h-7.29c-1.09,0-1.97-.88-1.97-1.97Z"/>
        <path class="cls-6" d="m1094.19,362.83l9.05-25.08c.3-.84,1.1-1.4,2-1.4h1.79c.89,0,1.69.56,2,1.4l9.04,25.08c.48,1.34-.51,2.75-1.93,2.75h0c-.87,0-1.64-.54-1.93-1.36l-2.26-6.3h-11.58l-2.28,6.31c-.29.81-1.07,1.36-1.93,1.36h-.02c-1.42,0-2.41-1.41-1.93-2.75Zm7.24-8.83h9.38l-4.69-13.44-4.69,13.44Z"/>
        <path class="cls-6" d="m1174.19,365.58h0c-.83,0-1.59-.5-1.91-1.27l-4.66-10.97h-7.32v10.15c0,1.15-.93,2.08-2.08,2.08h-.17c-1.15,0-2.08-.93-2.08-2.08v-25.09c0-1.14.92-2.06,2.06-2.06h9.54c2.17,0,3.97.33,5.4,1,1.43.67,2.49,1.62,3.19,2.84.7,1.23,1.05,2.68,1.05,4.35,0,1.58-.27,2.89-.8,3.94-.53,1.05-1.22,1.91-2.06,2.57-.84.66-1.73,1.18-2.66,1.56l4.39,10.07c.6,1.37-.41,2.91-1.9,2.91Zm-7.78-15.73c2.04,0,3.61-.44,4.73-1.32,1.12-.88,1.68-2.15,1.68-3.79s-.51-2.84-1.53-3.68c-1.02-.84-2.4-1.25-4.13-1.25h-6.85v10.05h6.11Z"/>
        <path class="cls-6" d="m1212.01,338.31h0c0-1.09.88-1.97,1.97-1.97h18.52c1.09,0,1.97.88,1.97,1.97h0c0,1.09-.88,1.97-1.97,1.97h-6.86v23.11c0,1.21-.98,2.18-2.18,2.18h0c-1.21,0-2.18-.98-2.18-2.18v-23.11h-7.29c-1.09,0-1.97-.88-1.97-1.97Z"/>
        <path class="cls-6" d="m1328.83,355.19c0,2.28-.38,4.22-1.13,5.83-.75,1.61-1.94,2.84-3.55,3.69-1.61.85-3.71,1.27-6.3,1.27s-4.75-.43-6.35-1.29-2.77-2.12-3.51-3.78c-.74-1.66-1.1-3.68-1.1-6.07v-16.31c0-1.21.98-2.19,2.19-2.19h.08c1.21,0,2.19.98,2.19,2.19v16.85c0,2.32.57,4.04,1.71,5.17,1.14,1.13,2.73,1.69,4.78,1.69,1.36,0,2.54-.25,3.53-.74.99-.49,1.75-1.25,2.27-2.27.53-1.02.79-2.3.79-3.85v-16.85c0-1.21.98-2.19,2.19-2.19h0c1.21,0,2.19.98,2.19,2.19v16.65Z"/>
        <path class="cls-6" d="m1367.18,363.37v-25.02c0-1.11.9-2.01,2.01-2.01h8.12c2.09,0,3.96.36,5.61,1.07,1.65.71,2.95,1.76,3.9,3.15.95,1.39,1.42,3.09,1.42,5.12s-.43,3.6-1.3,4.96c-.87,1.37-2.08,2.42-3.64,3.14-1.56.73-3.36,1.09-5.41,1.09h-6.31v8.49c0,1.22-.99,2.2-2.2,2.2h0c-1.22,0-2.2-.99-2.2-2.2Zm4.39-12.05h6.21c1.86,0,3.38-.53,4.55-1.61,1.17-1.07,1.76-2.5,1.76-4.28s-.6-3.19-1.82-4.15c-1.21-.96-2.76-1.45-4.65-1.45h-6.05v11.48Z"/>
      </g>
    </g>
  </g>
</svg>