<?xml version="1.0" encoding="UTF-8"?>
<svg id="Layer_1" data-name="Layer 1" xmlns="http://www.w3.org/2000/svg" viewBox="0 0 595.28 841.89">
  <defs>
    <style>
      .cls-1 {
        fill: #727171;
      }

      .cls-1, .cls-2 {
        stroke-width: 0px;
      }

      .cls-2 {
        fill: #002161;
      }
    </style>
  </defs>
  <path class="cls-1" d="m215.67,439.68c-2.56,0-4.65.74-6.21,2.21-1.57,1.47-2.37,3.33-2.37,5.54,0,2.42.75,4.41,2.22,5.9,1.47,1.49,3.64,2.25,6.44,2.25,2.43,0,4.44-.78,5.96-2.32,1.52-1.54,2.29-3.41,2.29-5.57s-.73-4.17-2.18-5.7c-1.46-1.53-3.53-2.31-6.15-2.31Zm3.62,10.85c-.58.8-1.15,1.36-1.7,1.65-.55.29-1.2.44-1.95.44s-1.47-.15-2.05-.44c-.58-.29-1.18-.81-1.78-1.54-.56-.68-.84-1.67-.84-2.96,0-1.52.41-2.76,1.22-3.68.8-.91,1.92-1.35,3.43-1.35s2.59.46,3.35,1.4c.79.98,1.17,2.04,1.17,3.24,0,1.38-.28,2.47-.83,3.25Zm306.61-10.85c-1.08,0-2.18.16-3.27.47,0,0-1.11.44-1.93.76-.04-.24-.16-1.06-.16-1.06l-.55.05h-3.08l.19,2.47v12.97h3.77v-11.57c.5-.19,2-.76,2-.76.88-.23,1.79-.34,2.7-.34.79,0,1.37.21,1.77.64.42.44.62.99.62,1.67v10.36h3.76v-10.54c0-1.62-.55-2.9-1.63-3.81-1.04-.87-2.45-1.32-4.19-1.32Zm-361,11.27c-.47.56-1,.99-1.58,1.3-.56.3-1.4.45-2.49.45-1.25,0-2.27-.5-3.11-1.52-.87-1.06-1.3-2.31-1.3-3.82s.39-2.61,1.19-3.53c.78-.9,1.8-1.33,3.14-1.33.81,0,1.51.12,2.08.35.56.22,1.08.6,1.55,1.11l.4.44,2.66-2.04-.52-.53c-.65-.66-1.46-1.18-2.41-1.57-.95-.38-2.18-.58-3.66-.58-2.51,0-4.55.75-6.06,2.23-1.51,1.49-2.27,3.39-2.27,5.65s.76,4.26,2.26,5.75c1.5,1.48,3.53,2.24,6.04,2.24,1.68,0,3.08-.25,4.15-.75,1.08-.5,1.97-1.18,2.65-2.03l.48-.59-2.86-1.65-.35.42Zm346.33-.42c-.61.67-1.28,1.18-2,1.52-.71.33-1.56.5-2.53.5-1.28,0-2.24-.47-2.97-1.42-.63-.83-.94-1.85-1.05-2.98h11.2l-.07-2.67c-.16-1.81-.9-3.25-2.19-4.28-1.26-1-2.98-1.52-5.11-1.52-2.52,0-4.48.73-5.82,2.18-1.33,1.44-2,3.3-2,5.54,0,2.56.74,4.59,2.21,6.02,1.46,1.43,3.4,2.16,5.77,2.16,1.79,0,3.27-.28,4.42-.83,1.13-.54,2.1-1.27,2.89-2.15l.5-.56-2.87-1.93-.38.42Zm-7.58-6.87c.63-.71,1.55-1.05,2.83-1.05s2.21.32,2.7.97c.41.53.63,1.16.75,1.85h-7.17c.15-.63.4-1.23.88-1.77Zm-305.33-3.97c-1.08,0-2.18.16-3.27.47,0,0-1.11.44-1.93.76-.03-.24-.16-1.06-.16-1.06l-.55.06h-3.09l.19,2.47v12.97h3.77v-11.57c.5-.19,2-.76,2-.76.89-.23,1.8-.34,2.7-.34.79,0,1.37.21,1.77.64.42.44.62.99.62,1.67v10.36h3.76v-10.54c0-1.62-.55-2.9-1.63-3.81-1.04-.87-2.45-1.32-4.19-1.32Zm-20.21,0c-2.56,0-4.65.74-6.21,2.21-1.57,1.47-2.37,3.33-2.37,5.54,0,2.42.74,4.41,2.21,5.9,1.47,1.5,3.64,2.25,6.45,2.25,2.43,0,4.44-.78,5.96-2.32,1.52-1.54,2.29-3.41,2.29-5.57s-.73-4.17-2.18-5.7c-1.46-1.53-3.53-2.31-6.15-2.31Zm3.62,10.85c-.58.8-1.15,1.36-1.7,1.65-.55.29-1.2.44-1.95.44s-1.48-.15-2.06-.44c-.58-.29-1.18-.81-1.78-1.54-.56-.68-.84-1.67-.84-2.96,0-1.52.41-2.76,1.22-3.68.79-.91,1.91-1.35,3.43-1.35s2.59.46,3.35,1.4c.79.98,1.17,2.04,1.17,3.24,0,1.38-.28,2.47-.83,3.25Zm-41.79-5.18h8.29v-3.02h-8.29v-5.68h10.39v-3.11h-14.34v21.81h14.81v-3.11h-10.86v-6.89Zm-94.91-.51c-.66-.51-1.35-.9-2.05-1.2.41-.22.81-.44,1.22-.75,1.15-.88,1.72-2.09,1.72-3.6,0-1.87-.74-3.32-2.2-4.32-1.38-.95-3.3-1.43-5.7-1.43h-7.64v21.81h7.57c2.84,0,5.07-.53,6.63-1.57,1.65-1.1,2.48-2.52,2.48-4.22,0-2.1-.68-3.68-2.03-4.72Zm-10.7-8.33h2.23c2.64,0,3.84.43,4.38.79.71.48,1.06,1.22,1.06,2.26,0,.85-.45,1.52-1.37,2.04-1.03.58-2.3.87-3.77.87h-2.53v-5.96Zm7.42,14.95c-.93.59-2.24.9-3.89.91h-3.53v-6.89h3.37c1.79,0,3.15.36,4.04,1.08.86.69,1.27,1.56,1.27,2.67,0,.97-.41,1.71-1.26,2.23Zm68.95-11.77c-1.08,0-2.18.16-3.27.47,0,0-1.11.44-1.93.76-.04-.24-.16-1.06-.16-1.06l-.55.06h-3.09l.19,2.47v12.97h3.76v-11.57c.5-.19,2-.76,2-.76.89-.23,1.79-.34,2.7-.34.79,0,1.37.21,1.77.64.41.44.62.99.62,1.67v10.36h3.76v-10.54c0-1.62-.55-2.9-1.63-3.81-1.04-.87-2.45-1.32-4.19-1.32Zm-46.53.22h-3.76v11.29c-.46.33-.99.63-1.7.84-.85.26-1.83.39-2.94.39-.75,0-1.34-.19-1.79-.59-.42-.37-.62-.92-.62-1.68v-10.25h-3.77v10.51c0,1.52.49,2.77,1.45,3.73.96.96,2.45,1.44,4.42,1.44l1.64-.16,2.13-.61s.68-.32,1.29-.61c.04.29.15,1.17.15,1.17l.57-.03h3.24l-.29-2.5v-12.94Zm498.29,0s-3.16,8.08-4.02,10.28c-.97-2.16-4.63-10.28-4.63-10.28h-4.1s6.44,13.46,6.66,13.91c-.08.27-.3.96-.3.96-.01.02-.78,1.59-.78,1.59l-.76,1.03-.95.6s-1.42.21-1.42.21l-2.38-.38-.24.57-.62,2.69,3.32.33c1.03,0,1.92-.12,2.64-.37.75-.25,1.4-.62,1.94-1.1l1.43-1.69s1.2-2.21,1.2-2.21c0,0,7.12-16.13,7.12-16.13h-4.11Zm-486.07,6.46s-2.8-.77-2.8-.77c0,0-2.13-.81-2.13-.81-.56-.32-.63-.64-.63-.89s.08-.58.66-.86c.6-.29,1.39-.43,2.34-.43.79,0,1.49.11,2.08.32,0,0,2.33,1.27,2.33,1.27l.42-.3,1.98-2-1.96-1.25s-1.46-.55-1.46-.55l-1.62-.3-1.8-.09c-1.88,0-3.45.37-4.66,1.11-1.31.79-1.98,1.88-1.98,3.22s.64,2.49,1.86,3.23c1.08.66,2.26,1.13,3.5,1.41-.04,0,1.6.46,1.6.46l.87.25c1.28.39,1.79.7,1.99.89.24.23.36.48.36.79s-.09.73-.77,1.1c-.64.35-1.48.52-2.51.52s-1.89-.16-2.54-.47c-.7-.33-1.36-.79-2.02-1.4l-.44-.4-2.62,2.38.55.48c1.05.91,2.17,1.54,3.31,1.86,1.13.31,2.41.47,3.81.47,1.86,0,3.46-.4,4.76-1.18,1.4-.85,2.11-2.02,2.11-3.48,0-1.16-.39-2.12-1.17-2.84-.73-.68-1.85-1.24-3.44-1.72Zm22.98,6.16l-1.5.13-.46-.06c-.1-.12-.25-.66-.25-.66,0,0-.06-1.19-.06-1.19v-6.3c0-1.51-.61-2.7-1.8-3.55-1.12-.8-2.63-1.21-4.49-1.21l-1.94.14s-1.88.42-1.88.42c0,0-1.73.66-1.73.66l-2.15,1.3.61.54,1.69,1.82,1.42-.87s1.12-.53,1.12-.53l1.31-.4s1.48-.15,1.48-.15c.88,0,1.56.17,2.01.5.4.29.59.78.59,1.49v.82c-.65.02-1.56.05-1.56.05,0,0-2.46.29-2.46.29l-2.4.6-2.14,1.04c-.64.44-1.16.98-1.56,1.61-.41.67-.62,1.45-.62,2.33,0,.67.14,1.29.43,1.82,0,0,1.15,1.34,1.15,1.34,0,0,1.69.8,1.69.8,0,0,2.01.27,2.01.27,1.28,0,2.49-.22,3.59-.66.85-.33,1.62-.83,2.38-1.35.17.44.28.94.58,1.24.53.51,1.22.77,2.04.77l1.82-.23s1.99-.93,1.99-.93l-.36-.49-.57-1.4Zm-6.03-1.47c-.32.18-.8.46-.8.46,0,0-1.2.49-1.2.49l-1.29.33s-1.31.12-1.31.12c-.75,0-1.32-.14-1.7-.41-.2-.14-.47-.41-.47-1.1,0-.39.11-.74.35-1.06.24-.34.65-.66,1.21-.93l2.34-.71s1.86-.16,2.88-.25v3.06Zm456.61,1.12l-2.86-1.64-.35.42c-.46.55-.99.99-1.57,1.3-.56.3-1.4.45-2.49.45-1.25,0-2.27-.5-3.11-1.52-.87-1.06-1.3-2.31-1.3-3.82s.39-2.61,1.2-3.53c.78-.9,1.8-1.33,3.14-1.33.81,0,1.52.12,2.09.35.55.22,1.07.59,1.55,1.11l.4.44,2.66-2.04-.52-.53c-.64-.66-1.45-1.18-2.41-1.57-.97-.39-2.16-.58-3.66-.58-2.51,0-4.55.75-6.06,2.23-1.51,1.49-2.28,3.39-2.28,5.65s.76,4.26,2.27,5.75c1.5,1.48,3.53,2.24,6.03,2.24,1.68,0,3.08-.25,4.15-.75,1.08-.5,1.97-1.19,2.65-2.04l.47-.6Zm-295.89,3.17h3.76v-15.44h-3.76v15.44Zm146.67,0h3.77v-15.44h-3.77v15.44Zm-35.17-14.21s-1.68-1.07-1.68-1.07c-.66-.25-1.43-.38-2.3-.38-1.85,0-3.82.5-5.85,1.41-.47-.43-.96-.83-1.55-1.04-.72-.25-1.55-.38-2.46-.38l-1.59.13s-1.45.32-1.45.32l-1.33.44s-.14.06-.31.13c-.03-.15-.16-.91-.16-.91l-.52.09h-3l.18,2.32v13.12h3.76v-11.81c.52-.18,1.67-.57,1.67-.57,0,0,2.17-.28,2.17-.28.81,0,1.41.18,1.8.52.37.33.55.9.55,1.68v10.47h3.76v-10.65s-.08-.7-.15-1.25c1.21-.48,2.44-.77,3.71-.77l.97.14s.72.39.72.39c0,0,.46.65.46.65,0,0,.17.99.17.99v10.49h3.77v-10.69l-.32-1.91-1-1.61Zm12.82-1.45c-2.56,0-4.65.74-6.21,2.21-1.57,1.47-2.37,3.33-2.37,5.54,0,2.42.75,4.41,2.21,5.9,1.47,1.5,3.64,2.25,6.44,2.25,2.43,0,4.44-.78,5.96-2.32,1.52-1.54,2.29-3.41,2.29-5.57s-.73-4.18-2.18-5.7c-1.46-1.53-3.53-2.31-6.15-2.31Zm3.62,10.85c-.58.8-1.15,1.36-1.7,1.65-.56.3-1.19.44-1.95.44s-1.47-.15-2.06-.44c-.58-.29-1.18-.81-1.78-1.54-.56-.68-.84-1.67-.84-2.96,0-1.52.41-2.76,1.22-3.68.79-.91,1.92-1.35,3.43-1.35s2.59.46,3.35,1.4c.79.98,1.17,2.04,1.17,3.24,0,1.38-.28,2.47-.83,3.25Zm16.21,1.56l-1.78.33s-1.26.13-1.26.13c-.58,0-.81-.23-.94-.43-.25-.38-.37-.92-.37-1.6v-7.51h3.74l.46-3.1h-4.2v-3.57h-3.76v3.57h-2.43v3.1h2.43v8.05c0,1.69.46,2.89,1.36,3.57.84.64,2.01.96,3.47.96l1.65-.12,1.98-.25-.09-.63-.26-2.49Zm18.01-12.41c-2.56,0-4.65.74-6.21,2.21-1.57,1.47-2.37,3.33-2.37,5.54,0,2.42.74,4.41,2.21,5.9,1.47,1.5,3.64,2.25,6.45,2.25,2.43,0,4.44-.78,5.96-2.32,1.52-1.54,2.29-3.41,2.29-5.57s-.74-4.17-2.18-5.7c-1.45-1.53-3.52-2.31-6.15-2.31Zm3.62,10.85c-.58.8-1.15,1.36-1.7,1.65-.55.29-1.21.44-1.96.44s-1.47-.15-2.05-.44c-.58-.29-1.18-.81-1.78-1.54-.56-.68-.84-1.67-.84-2.96,0-1.52.41-2.76,1.22-3.68.8-.91,1.92-1.35,3.43-1.35s2.59.46,3.35,1.4c.79.98,1.17,2.04,1.17,3.24,0,1.38-.28,2.47-.83,3.25Zm-17.24-16.46c-.62,0-1.13.19-1.53.58,0,0-.6,1.34-.6,1.34,0,.55.24,1.04.68,1.4,0,0,1.45.51,1.45.51l1.43-.51c.44-.37.67-.85.67-1.4l-.59-1.33c-.39-.38-.91-.58-1.51-.58Zm65.8-.53l-8.88,21.81h4.05s2.34-6.25,2.62-6.99h7.33c.28.75,2.6,6.99,2.6,6.99h4.34l-8.61-21.81h-3.45Zm-1.16,11.93c.46-1.18,1.92-4.94,2.68-6.89.73,1.95,2.14,5.71,2.57,6.89h-5.25Zm-218.17-4.33s-1.69-1.07-1.69-1.07c-.66-.25-1.42-.38-2.29-.38-1.84,0-3.81.5-5.85,1.41-.47-.43-.96-.83-1.55-1.04-.72-.25-1.54-.38-2.46-.38l-1.59.13s-1.46.32-1.46.32l-1.33.44s-.14.06-.31.13c-.03-.15-.16-.9-.16-.9l-.53.09h-3.01l.17,2.31v13.13h3.77v-11.81c.51-.18,1.67-.57,1.67-.57,0,0,2.17-.28,2.17-.28.81,0,1.41.18,1.79.52.37.34.56.88.56,1.68v10.47h3.77v-10.65s-.08-.7-.15-1.25c1.2-.48,2.44-.77,3.7-.77l.98.14s.71.39.71.39c0,0,.46.65.46.65,0,0,.17.99.17.99v10.49h3.76v-10.69l-.32-1.91s-.99-1.61-.99-1.61Zm24.02,9.82c-.47.56-1,.99-1.58,1.3-.56.3-1.39.45-2.49.45-1.25,0-2.27-.5-3.11-1.52-.88-1.06-1.3-2.31-1.3-3.82s.39-2.61,1.19-3.53c.78-.9,1.81-1.33,3.14-1.33.81,0,1.51.12,2.09.35.55.22,1.08.59,1.55,1.11l.4.44,2.66-2.04-.52-.53c-.65-.66-1.46-1.18-2.41-1.57-.95-.38-2.18-.58-3.66-.58-2.51,0-4.55.75-6.06,2.23-1.51,1.49-2.27,3.39-2.27,5.65s.76,4.26,2.26,5.75c1.5,1.48,3.53,2.24,6.04,2.24,1.68,0,3.08-.25,4.15-.75,1.07-.49,1.96-1.18,2.65-2.03l.48-.59-2.87-1.65-.35.42Zm-17.15-16.88c-.61,0-1.13.19-1.52.58,0,0-.61,1.34-.61,1.34,0,.55.24,1.04.69,1.4,0,0,1.45.51,1.45.51l1.43-.51c.44-.37.67-.85.67-1.4l-.59-1.33c-.39-.38-.9-.58-1.51-.58Zm180.49,5.62c-1.08,0-2.18.16-3.27.47,0,0-1.11.44-1.92.76-.03-.24-.16-1.06-.16-1.06l-.55.05h-3.09l.19,2.47v12.97h3.76v-11.57c.5-.19,2-.76,2-.76.88-.23,1.79-.34,2.7-.34.79,0,1.37.21,1.77.64.42.44.62.99.62,1.67v10.36h3.76v-10.54c0-1.62-.55-2.9-1.63-3.81-1.05-.87-2.46-1.32-4.2-1.32Zm-114.88,0c-1.25,0-2.47.26-3.62.77-.73.32-1.32.84-1.94,1.32,0-.13-.02-.36-.02-.36l-.29-1.58-.52.08h-3l.04.8.08,1.82v12.82h3.76v-10.34c.16-.27.52-.66,1.43-1.19.81-.46,1.86-.7,3.12-.7l1.59.14.23-.53.7-2.85-1.05-.16s-.51-.03-.51-.03Zm171.51.97c-.41-.15-1.9-.7-1.9-.7,0,0-2.29-.26-2.29-.26l-2.58.34c-.87.24-1.64.58-2.3,1.03-.69.46-1.25,1.05-1.68,1.74-.44.71-.66,1.54-.66,2.45,0,1.1.26,2.04.78,2.81.28.4.79.66,1.21.99-.26.13-1.05.53-1.05.53,0,0-.97.83-.97.83,0,0-.49,1.29-.49,1.29l.3,1.1s.68.73.68.73c0,0,.39.23.63.38-.02.01-.09.06-.09.06,0,0-.94.93-.94.93,0,0-.67,1.08-.67,1.08,0,0-.26,1.25-.26,1.25,0,.76.2,1.43.61,1.99.37.53.9.97,1.57,1.31,0,0,2.23.71,2.23.71,0,0,2.74.22,2.74.22l1.94-.06,2.06-.24,1.96-.49,1.73-.84s1.26-1.3,1.26-1.3c.34-.55.51-1.18.51-1.9,0-.79-.24-1.46-.7-2.01l-1.64-1.26-2.15-.76-3.57-.61s-3.14-.39-3.14-.39c0,0-1.31-.3-1.31-.3t0,0s.43-.34.43-.34c.02,0,.64-.27.64-.27,0,0,.51-.12.52-.12.02.01,2.13.22,2.13.22l2.56-.31c.83-.21,1.59-.54,2.25-.99.67-.46,1.21-1.05,1.62-1.76.41-.72.61-1.58.61-2.54l-.33-1.74s-.11-.18-.24-.4c.02,0,.09-.02.09-.02,0,0,1.07-.05,1.07-.05,0,0,1.6.04,1.6.04l.51-3.05-3.05.22s-1.69.39-2.23.52Zm-7.6,14.14c.22.02,1.62.12,1.62.12l1.86.22,2.47.49s1.2.46,1.2.46c0,0,.69.49.69.49,0,0,.17.38.17.38l-.15.4s-.65.48-.65.48c0,0-1.03.39-1.03.39,0,0-1.24.27-1.24.27,0,0-1.21.14-1.21.14,0,0-1.01.05-1.01.05l-1.5-.11-1.25-.36s-.81-.63-.81-.63c-.18-.23-.26-.52-.26-.91l.29-.91s.53-.62.8-.94Zm6.11-8.42s-.5.94-.5.94c0,0-.86.58-.86.58,0,0-1.4.22-1.4.22l-1.5-.26-1.01-.66s-.59-.9-.59-.9c0,0-.2-1.05-.2-1.05l.16-1.09.5-.87s.96-.64.96-.64c.42-.17.97-.26,1.64-.26l1.38.22s.9.56.9.56c0,0,.51.81.51.81,0,0,.18,1.01.18,1.01l-.17,1.37Zm-183.87-11.15c-1.47-1.12-3.55-1.68-6.19-1.68h-7.28v21.81h3.95v-8.62h1.99c3.08,0,5.5-.64,7.19-1.91,1.75-1.32,2.64-2.89,2.64-4.68,0-2.1-.78-3.75-2.31-4.91Zm-3.21,7.42c-1.06.71-2.54,1.08-4.38,1.08h-1.92v-7.18h2.37c1.99,0,3.42.29,4.26.88.77.53,1.14,1.37,1.14,2.57,0,1.12-.48,1.99-1.47,2.65Zm27.62-2.95c-2.56,0-4.65.74-6.21,2.21-1.57,1.46-2.37,3.33-2.37,5.54,0,2.43.74,4.41,2.21,5.9,1.47,1.49,3.64,2.25,6.45,2.25,2.43,0,4.44-.78,5.96-2.32,1.52-1.54,2.29-3.42,2.29-5.57s-.73-4.17-2.18-5.7c-1.46-1.53-3.53-2.31-6.15-2.31Zm3.62,10.85c-.58.81-1.15,1.36-1.69,1.65-.55.29-1.21.44-1.96.44s-1.47-.15-2.06-.44c-.58-.29-1.18-.81-1.78-1.54-.56-.68-.84-1.67-.84-2.96,0-1.53.41-2.76,1.22-3.67.79-.91,1.92-1.35,3.43-1.35s2.59.46,3.35,1.4c.78.97,1.17,2.06,1.17,3.24,0,1.38-.28,2.47-.84,3.25Z"/>
  <g>
    <path class="cls-2" d="m99.63,398.81v5.56h-28.39v20.28h-12.17v-20.28h-28.39v-5.56h68.95Zm-47.94-33.27v7.87h26.85v-7.87h12.17v27.57h-42.81c-5.05,0-8.38-2.53-8.38-6.43v-21.14h12.17Zm26.85,22.09v-8.66h-26.85v8.66h26.85Z"/>
    <path class="cls-2" d="m134.6,365.83v9.38c0,11.04,9.01,18.55,18.83,19.99l-5.86,4.12c-7.66-.51-17.03-5.78-19.1-10.9-1.98,5.12-11.45,10.32-19.02,10.9l-5.95-4.12c9.91-1.44,18.83-9.09,18.83-19.99v-9.38h12.26Zm-2.07,53.26h39.11v5.56h-42.8c-4.87,0-8.47-2.46-8.47-6.5v-13.5h12.17v14.43Zm24.24-10.04v-44.17h12.16v12.63h12.17v5.56h-12.17v25.98h-12.16Z"/>
    <path class="cls-2" d="m237.51,365.04h12.17v33.78h-12.17v-7.51h-14.96v-5.41h14.96v-7h-12.16c-4.24,12.34-19.02,19.85-33.25,19.99l-6.76-3.83c16.58-.94,28.3-8.59,28.3-21.87v-.72h-23.52v-5.49h36.5v4.84c0,.51,0,1.15-.09,1.66h11v-8.44Zm9.37,47.85c0,7.87-9.19,14.15-20.45,14.15s-20.55-6.28-20.55-14.15,9.28-14.14,20.55-14.14,20.45,6.27,20.45,14.14Zm-28.84,0c0,4.55,3.7,8.44,8.39,8.44s8.29-3.9,8.29-8.44-3.69-8.59-8.29-8.59-8.39,4.04-8.39,8.59Z"/>
    <path class="cls-2" d="m312.85,424.65h-11.44v-24.03l-5.41,3.61c-6.84-.72-14.69-6.71-15.95-11.69-1.17,4.98-9.1,10.9-16.04,11.69l-5.58-3.75c9.1-1.88,15.58-10.61,15.58-21.87v-6.28h-10.63v-5.49h32.44v5.49h-9.82v6.28c0,11.19,6.58,19.85,15.41,21.87v-15.44h-10v-5.56h10v-14.58h11.44v59.76Zm16.22-59.76v59.76h-11.45v-59.76h11.45Z"/>
    <path class="cls-2" d="m343.4,366.84h39.93v5.49h-13.88v3.53c0,11.04,9.01,18.55,18.83,19.99l-5.95,4.11c-7.57-.5-16.94-5.77-19.01-10.9-1.98,5.12-11.45,10.32-19.01,10.9l-5.95-4.11c9.91-1.45,18.83-9.09,18.83-19.99v-3.53h-13.79v-5.49Zm24.07,52.26h40.19v5.56h-43.98c-4.87,0-8.38-2.46-8.38-6.5v-13.5h12.17v14.43Zm37.57-10.04h-12.16v-44.17h12.16v44.17Z"/>
    <path class="cls-2" d="m487.5,400.83h-69.76v-5.2h69.76v5.2Zm-28.74-37.39v6.35h21.89v5.05h-12.7c2.43,1.88,3.87,4.33,3.87,7,0,6.49-8.38,11.47-19.2,11.47s-19.2-4.98-19.2-11.47c0-2.67,1.44-5.12,3.88-7h-12.62v-5.05h21.81v-6.35h12.26Zm13.06,51.75c0,6.85-8.56,12.12-19.2,12.12s-19.2-5.27-19.2-12.12,8.56-12.05,19.2-12.05,19.2,5.27,19.2,12.05Zm-26.86-33.34c0,3.47,3.61,6.86,7.66,6.86s7.66-3.39,7.66-6.86-3.61-6.93-7.66-6.93-7.66,3.39-7.66,6.93Zm.18,33.34c0,3.46,3.52,6.93,7.48,6.93s7.48-3.46,7.48-6.93-3.52-7.01-7.48-7.01-7.48,3.61-7.48,7.01Z"/>
    <path class="cls-2" d="m543.55,391.31v5.2h-18.66v8.81h-12.16v-8.81h-16.58v-5.2h47.4Zm-6.31-14.36c0,6.86-8.11,12.27-18.29,12.27s-18.39-5.41-18.39-12.27,8.11-12.34,18.39-12.34,18.29,5.56,18.29,12.34Zm-15.41,42.15h41.72v5.56h-45.42c-4.86,0-8.47-2.46-8.47-6.5v-9.89h12.17v10.83Zm-9.55-42.15c0,4.04,2.97,7.07,6.67,7.07s6.58-3.03,6.58-7.07-2.97-7.07-6.58-7.07-6.67,3.03-6.67,7.07Zm48.76-12.05v45.47h-12.17v-5.49h-16.4v-4.84h16.4v-35.15h12.17Z"/>
  </g>
</svg>